PathFileType	4	(X/Y/Z)	C:/Users/beibeiliu/ov580/test_trc/User3\sequence.10_training_dense_right.trc
DataRate	CameraRate	NumFrames	NumMarkers	Units	OrigDataRate	OrigDataStartFrame	OrigNumFrames
120	120	18	19	mm	120	1	117
Frame#	Time	ThumbCMC			ThumbMCP			ThumbIP			ThumbTip			IndexMCP			IndexPIP			IndexTip			MiddleMCP			MiddlePIP			MiddleTip			RingMCP			RingPIP			RingTip			PinkyMCP			PinkyPIP			PinkyTip			BackHand1			BackHand2			BackHand3	
		X0	Y0	Z0	X1	Y1	Z1	X2	Y2	Z2	X3	Y3	Z3	X4	Y4	Z4	X5	Y5	Z5	X6	Y6	Z6	X7	Y7	Z7	X8	Y8	Z8	X9	Y9	Z9	X10	Y10	Z10	X11	Y11	Z11	X12	Y12	Z12	X13	Y13	Z13	X14	Y14	Z14	X15	Y15	Z15	X16	Y16	Z16	X17	Y17	Z17	X18	Y18	Z18	
0	0	52.0831	-61.5091	13.1636	29.1135	-72.1159	-13.1559	19.7086	-80.1873	-41.8335	21.483	-88.9254	-64.6463	52.3935	-42.7142	-61.628	38.6567	-66.6041	-82.8693	30.2378	-92.5897	-81.5373	80.9762	-36.1717	-68.9968	69.2318	-37.663	-96.3872	61.1979	-49.052	-126.696	99.4197	-44.0702	-63.2524	98.3071	-40.5209	-89.8758	98.1307	-42.8408	-118.102	118.983	-60.995	-51.2335	128.399	-60.3112	-72.1554	137.293	-61.1673	-91.4115	107.121	-45.2567	-13.0261	112.303	-47.1961	17.751	79.2351	-36.5311	7.58298	
1	0.00833333	50.2945	-60.0793	8.78126	33.7041	-71.4469	-11.8816	22.3611	-78.6501	-43.1844	19.0179	-89.0625	-63.5512	53.1534	-43.0249	-60.7965	36.5883	-64.2039	-82.765	33.7391	-94.8271	-82.442	78.7398	-35.7754	-66.7312	68.7236	-38.1323	-99.5496	61.1314	-48.9005	-128.107	97.9996	-43.4052	-64.6277	103.535	-43.655	-87.1857	97.6611	-43.9298	-117.087	118.816	-62.5708	-50.2494	129.6	-61.6331	-72.823	134.16	-61.8879	-95.0996	107.447	-46.4525	-12.5462	112.791	-48.9996	17.5679	79.5309	-35.0216	5.03692	
2	0.0166667	50.3825	-60.8432	13.9615	35.1931	-71.2944	-14.5902	22.0274	-78.6598	-42.7645	23.6762	-87.5764	-64.3323	54.9108	-43.0651	-61.3037	38.0121	-60.2818	-81.1786	34.9587	-90.952	-84.2387	79.3828	-35.5767	-71.5706	70.0912	-38.0144	-98.8675	62.3616	-49.9047	-129.108	102.08	-45.8244	-63.7588	100.792	-43.7123	-86.5107	99.3432	-46.3245	-115.734	120.66	-61.854	-50.8018	129.891	-63.9341	-70.3156	135.47	-63.2978	-90.8912	109.625	-47.0527	-13.459	116.819	-49.5167	14.8575	83.0933	-35.9276	6.36896	
3	0.025	50.207	-59.3183	10.484	33.3084	-70.4395	-12.8338	24.0608	-77.427	-44.9179	23.4498	-87.9199	-66.7287	54.9428	-41.4892	-59.8447	38.9548	-63.8581	-83.015	37.2745	-92.2662	-84.8897	85.1019	-36.6958	-70.8202	75.0655	-39.5973	-101.009	66.4869	-50.6141	-127.933	102.403	-43.5504	-64.9165	103.566	-42.7252	-90.928	99.5586	-46.0603	-116.546	121.633	-62.4216	-49.7486	129.9	-63.6355	-68.5195	138.575	-64.038	-94.7133	108.834	-44.3391	-13.0799	115.949	-51.3423	17.3243	80.2138	-34.687	2.8218	
4	0.0333333	50.0918	-56.8071	8.83194	35.5029	-68.7208	-14.3638	24.3906	-75.8422	-44.0129	26.1909	-86.4854	-67.6508	56.8839	-41.3695	-64.278	40.6963	-59.5582	-83.174	39.2688	-90.3371	-84.8051	82.7137	-34.4985	-66.9468	74.2997	-38.6735	-100.608	65.6114	-47.2819	-126.371	103.298	-44.5974	-60.403	102.427	-40.5029	-91.1472	101.738	-43.6086	-118.215	123.585	-63.5772	-47.6847	132.579	-61.6137	-73.031	139.299	-64.6381	-95.2109	110.386	-44.9211	-10.2625	120.031	-49.2936	17.1005	86.4425	-35.8967	5.6118	
5	0.0416667	51.8065	-55.5971	7.93173	38.7265	-67.0651	-14.7076	27.2854	-74.892	-39.5809	26.9868	-84.0427	-63.8916	55.806	-39.4131	-61.5515	45.844	-60.8255	-84.1942	34.7672	-91.0375	-81.9907	86.2949	-33.3851	-67.3291	79.0948	-35.7957	-97.5592	66.9272	-44.82	-124.464	103.715	-40.8151	-63.0251	107.492	-39.1146	-87.7804	101.834	-41.3991	-113.492	126.861	-61.0295	-50.4573	131.687	-59.8967	-69.2743	142.909	-62.3938	-95.5232	115.041	-44.8806	-13.2022	117.901	-47.3392	14.8888	86.9219	-33.4012	2.13328	
6	0.05	55.0305	-54.6514	10.3024	35.6088	-64.1872	-11.735	23.2014	-71.7506	-40.8558	23.3752	-82.6996	-62.9909	58.236	-37.6775	-60.4317	41.7365	-58.1648	-81.1117	40.3799	-87.8934	-82.1084	84.8638	-30.1496	-66.2747	77.8844	-33.3968	-95.4653	68.0123	-43.5035	-124.674	108.882	-40.218	-61.791	109.453	-38.2546	-86.5293	106.428	-40.4867	-112.386	124.621	-59.6136	-46.6744	136.134	-60.909	-69.9625	143.185	-61.7983	-94.4665	113.439	-41.5669	-8.28396	116.985	-45.8141	18.9356	85.9523	-31.6324	4.67515	
7	0.0583333	54.8986	-52.7669	17.0535	36.9007	-61.6095	-9.59515	24.9666	-69.0085	-37.1016	24.3814	-78.8197	-62.0876	57.3875	-33.9629	-57.8721	45.0429	-57.3402	-79.3756	37.9041	-87.0295	-78.7548	87.7476	-29.6573	-66.0504	79.0563	-32.1027	-94.4596	70.9186	-43.1609	-126.427	110.272	-39.9276	-60.5023	111.293	-37.6928	-85.5412	105.235	-37.4369	-109.451	125.794	-58.5045	-42.5612	134.423	-57.7806	-63.8954	145.51	-59.3579	-88.625	114.336	-38.2613	-9.86835	119.362	-44.4385	23.1818	85.8712	-28.6987	10.5382	
8	0.0666667	58.0438	-49.6647	14.5921	37.4399	-58.7643	-6.62627	27.3374	-65.6229	-32.612	23.8289	-75.6115	-56.9332	59.6723	-32.7015	-56.4269	44.0581	-51.9046	-76.4963	38.8189	-79.1161	-77.7235	89.7473	-27.3182	-62.2378	80.2125	-30.5107	-94.0443	70.5039	-38.1237	-117.642	108.225	-37.4979	-53.5338	108.942	-35.3108	-79.6983	106.988	-36.3313	-110.002	127.832	-56.8147	-41.4292	134.125	-55.914	-64.0586	145.626	-60.2983	-83.3262	119.156	-38.8407	-6.3226	122.778	-44.2281	22.1163	90.0217	-28.9187	13.2816	
9	0.075	55.7158	-45.5816	22.3761	36.9203	-55.6956	-4.58022	25.3877	-61.5915	-29.972	23.3699	-70.7731	-56.0466	61.653	-28.6416	-54.1916	43.4572	-44.7449	-71.38	37.1424	-77.2558	-73.2039	86.3047	-21.206	-61.1206	79.5307	-25.5492	-90.854	68.9678	-32.5758	-115.716	108.672	-34.2551	-51.2269	107.42	-31.0289	-76.9456	104.821	-32.1539	-105.397	129.103	-54.7024	-39.2917	134.586	-53.0941	-60.9518	141.947	-52.4874	-82.3461	113.409	-36.6111	-1.18175	122.046	-41.8773	23.357	92.4245	-24.8844	16.7024	
10	0.0833333	57.8821	-42.1944	21.6927	34.5608	-50.6996	-3.7939	22.3025	-58.8131	-29.4478	24.7977	-68.2434	-54.381	59.8634	-22.9722	-47.5504	41.2601	-44.158	-70.1266	38.5655	-71.1168	-73.2499	87.5747	-19.1715	-58.1553	82.0042	-20.922	-85.1921	69.5087	-29.7252	-113.597	109.225	-29.7852	-52.4738	108.164	-26.7998	-75.5178	104.588	-27.9816	-102.891	128.523	-51.9266	-37.7717	133.299	-49.3784	-59.0808	141.818	-49.1722	-83.9117	113.573	-33.4101	2.68456	121.542	-37.6199	29.8001	90.2048	-23.6444	19.2801	
11	0.0916667	57.2293	-41.0639	27.9144	40.5868	-48.8507	0.345314	25.1419	-55.4382	-30.4586	24.9201	-65.3695	-54.4719	57.7214	-21.1595	-46.9879	43.9541	-41.2865	-68.6105	36.9239	-70.9331	-69.0674	85.9376	-15.6771	-52.5044	79.9959	-17.4978	-84.303	66.5179	-24.6213	-111.685	109.064	-26.0673	-49.584	109.175	-24.2818	-73.6091	103.163	-24.633	-102.864	125.851	-44.4606	-38.9649	135.659	-45.5986	-60.1592	142.831	-48.2484	-81.3094	116.073	-29.7819	-0.769419	121.28	-35.0789	29.874	86.9778	-18.3367	17.9128	
12	0.1	55.9516	-38.9359	28.8829	40.3492	-47.8464	1.79549	26.9077	-54.9733	-23.281	25.0522	-63.1973	-48.0667	57.1453	-19.5301	-47.4108	45.113	-40.2724	-66.7188	35.4312	-65.5159	-66.5805	85.4136	-13.2696	-55.5803	80.9556	-18.7482	-84.971	69.2905	-26.1484	-110.414	108.286	-24.1327	-49.0279	110.407	-23.2076	-75.5111	102.805	-21.9479	-100.641	129.061	-43.9411	-36.5032	134.255	-43.5794	-57.4029	140.46	-45.3383	-80.1071	116.101	-26.1067	2.80904	121.58	-34.0965	30.5841	89.3407	-16.0507	23.4799	
13	0.108333	59.8578	-39.4746	26.6217	39.3248	-48.4022	2.22903	28.4291	-53.9096	-23.8673	24.4747	-63.5483	-45.5669	61.585	-20.5743	-44.4457	46.2212	-40.1793	-66.2442	36.4627	-71.5007	-65.497	91.0303	-15.7318	-51.3323	82.1616	-17.3657	-80.2298	69.688	-27.0557	-111.987	110.851	-25.4664	-49.4787	105.534	-21.7168	-71.2778	105.594	-23.6304	-96.4964	129.419	-46.3584	-32.4534	135.862	-45.3185	-57.7297	139.46	-44.8482	-76.1841	115.672	-27.9462	6.60805	122.065	-33.5279	30.5633	88.8658	-15.9558	24.6432	
14	0.116667	56.5183	-39.278	27.5907	34.5678	-48.2084	5.16943	25.7258	-53.9584	-22.9636	23.9861	-62.7936	-50.3156	56.4142	-20.4636	-46.5736	43.9864	-42.9736	-65.545	34.2564	-69.247	-64.0597	84.9048	-14.7978	-51.4945	81.2425	-17.707	-78.9705	67.3583	-26.5972	-110.023	109.939	-26.7989	-47.413	107.024	-22.4807	-74.4669	102.408	-23.3516	-100.555	126.142	-46.4972	-32.5712	136.37	-46.7777	-52.9907	140.833	-45.6008	-78.7896	117.052	-29.7336	5.00312	119.477	-32.9291	33.4402	87.4302	-17.6285	21.0525	
15	0.125	53.0075	-37.5708	27.4407	34.8246	-47.9849	4.16823	21.8393	-54.0381	-22.0733	21.3327	-63.1572	-45.8478	53.9937	-20.6203	-45.6352	38.8243	-43.3235	-64.0109	30.4948	-70.0945	-63.2919	83.4367	-15.3232	-54.1258	73.5326	-17.2064	-82.1354	63.3377	-25.0728	-108.369	103.588	-24.391	-47.5359	108.317	-23.8447	-70.5434	103.055	-24.212	-99.6089	124.936	-46.2844	-32.9948	133.291	-46.7385	-53.7315	138.683	-45.6874	-77.2439	116.834	-29.436	5.72116	121.379	-33.3438	30.5238	86.4484	-18.3829	24.1085	
16	0.133333	54.1968	-39.7762	27.512	31.1515	-48.2479	3.0499	22.2824	-54.6668	-25.9624	19.5208	-64.9025	-48.3665	51.4785	-22.0918	-46.8107	35.4515	-42.465	-63.6498	31.1196	-73.5606	-64.9737	81.0321	-15.2934	-51.1318	71.934	-17.8668	-79.8977	64.9268	-28.3593	-108.591	101.681	-27.1982	-43.982	102.205	-24.0405	-73.8079	98.3472	-24.186	-100.918	122.342	-47.8791	-31.1779	129.047	-46.3292	-57.4384	135.417	-46.1111	-79.546	112.808	-29.0338	5.99503	119.302	-34.1439	33.4924	85.2363	-19.6247	24.1821	
17	0.141667	48.7114	-39.369	26.2859	31.6749	-50.2054	-0.153322	16.6624	-57.3632	-23.0042	16.0005	-66.3769	-45.9274	51.3995	-24.4382	-48.4506	36.1356	-44.8191	-66.072	28.857	-72.3468	-65.7045	79.8127	-18.6717	-55.3307	70.2762	-21.4111	-84.0379	57.4041	-29.0574	-110.348	98.0522	-26.7682	-47.3231	100.809	-26.3995	-76.4906	94.039	-26.1908	-99.1855	118.447	-46.8656	-35.8408	126.696	-48.1491	-58.3279	136.372	-49.1383	-77.1135	111.194	-30.6805	4.70833	116.327	-35.518	34.6184	79.7998	-19.4698	23.796	
